<?xml version="1.0" encoding="UTF-8"?>
<svg width="25px" height="18px" viewBox="0 0 25 18" version="1.1" xmlns="http://www.w3.org/2000/svg" xmlns:xlink="http://www.w3.org/1999/xlink">
    <title>icon / menu</title>
    <defs>
        <path d="M27.5,15 C27.5,15.75 27,16.25 26.25,16.25 L3.75,16.25 C3,16.25 2.5,15.75 2.5,15 C2.5,14.25 3,13.75 3.75,13.75 L26.25,13.75 C27,13.75 27.5,14.25 27.5,15 Z M3.75,8.75 L26.25,8.75 C27,8.75 27.5,8.25 27.5,7.5 C27.5,6.75 27,6.25 26.25,6.25 L3.75,6.25 C3,6.25 2.5,6.75 2.5,7.5 C2.5,8.25 3,8.75 3.75,8.75 Z M26.25,21.25 L3.75,21.25 C3,21.25 2.5,21.75 2.5,22.5 C2.5,23.25 3,23.75 3.75,23.75 L26.25,23.75 C27,23.75 27.5,23.25 27.5,22.5 C27.5,21.75 27,21.25 26.25,21.25 Z" id="path-1"></path>
    </defs>
    <g id="Symbols" stroke="none" stroke-width="1" fill="none" fill-rule="evenodd">
        <g id="Jigsaw-Nav" transform="translate(-1213.000000, -78.000000)">
            <g id="icon-/-menu" transform="translate(1210.500000, 72.000000)">
                <mask id="mask-2" fill="white">
                    <use xlink:href="#path-1"></use>
                </mask>
                <use id="Mask" fill="#0051A5" fill-rule="nonzero" xlink:href="#path-1"></use>
                <g id="Group" mask="url(#mask-2)" fill="#0051A5">
                    <g id="Icon-Color">
                        <rect id="Shape" x="0" y="0" width="30" height="30"></rect>
                    </g>
                </g>
            </g>
        </g>
    </g>
</svg>